# xmcd CD database file
#
# Track frame offsets:
#	150
#	32237
#	58277
#	87946
#	125180
#	148130
#	176899
#	207009
#	239229
#	266567
#	294713
#	315217
#
# Disc length: 4538 seconds
#
# Revision: 2
# Processed by: cddbd v1.5.2PL0 Copyright (c) Steve Scherf et al.
# Submitted via: CDex 1.51
#
DISCID=c311b80c
DTITLE=Bill Evans - Interplay
DYEAR=1962
DGENRE=Jazz
TTITLE0=YOU AND THE NIGHT AND THE MUSIC
TTITLE1=WHEN YOU WISH UPON A STAR
TTITLE2=I'LL NEVER SMILE AGAIN MASTER
TTITLE3=INTERPLAY
TTITLE4=YOU GO TO MY HEAD
TTITLE5=WRAP YOUR TROUBLES IN DREAMS
TTITLE6=I'LL NEVER SMILE AGAIN alt tk
TTITLE7=LOOSE BLOOSE MASTER
TTITLE8=TIME REMEMBERED
TTITLE9=FUNKALLERO
TTITLE10=FUDGESICKLE
TTITLE11=LOOSE BLOOSE alt tk
EXTD=YEAR: 1962
EXTT0=
EXTT1=
EXTT2=
EXTT3=
EXTT4=
EXTT5=
EXTT6=
EXTT7=
EXTT8=
EXTT9=
EXTT10=
EXTT11=
PLAYORDER=
